<?xml version="1.0" encoding="UTF-8" standalone="no"?>
<!-- Created with Inkscape (http://www.inkscape.org/) -->

<svg
   xmlns:dc="http://purl.org/dc/elements/1.1/"
   xmlns:cc="http://creativecommons.org/ns#"
   xmlns:rdf="http://www.w3.org/1999/02/22-rdf-syntax-ns#"
   xmlns:svg="http://www.w3.org/2000/svg"
   xmlns="http://www.w3.org/2000/svg"
   xmlns:sodipodi="http://sodipodi.sourceforge.net/DTD/sodipodi-0.dtd"
   xmlns:inkscape="http://www.inkscape.org/namespaces/inkscape"
   width="100"
   height="53"
   viewBox="0 0 26.458332 14.022917"
   version="1.1"
   id="svg4604"
   inkscape:version="0.92.4 (5da689c313, 2019-01-14)"
   sodipodi:docname="academia.svg">
  <defs
     id="defs4598" />
  <sodipodi:namedview
     id="base"
     pagecolor="#ffffff"
     bordercolor="#666666"
     borderopacity="1.0"
     inkscape:pageopacity="0.0"
     inkscape:pageshadow="2"
     inkscape:zoom="1.745"
     inkscape:cx="-83.910019"
     inkscape:cy="78.086332"
     inkscape:document-units="px"
     inkscape:current-layer="layer1"
     showgrid="false"
     showguides="true"
     inkscape:guide-bbox="true"
     units="px"
     inkscape:window-width="1920"
     inkscape:window-height="1017"
     inkscape:window-x="1358"
     inkscape:window-y="-8"
     inkscape:window-maximized="1">
    <sodipodi:guide
       position="-140.70163,185.30283"
       orientation="0,1"
       id="guide4657"
       inkscape:locked="false" />
  </sodipodi:namedview>
  <metadata
     id="metadata4601">
    <rdf:RDF>
      <cc:Work
         rdf:about="">
        <dc:format>image/svg+xml</dc:format>
        <dc:type
           rdf:resource="http://purl.org/dc/dcmitype/StillImage" />
        <dc:title></dc:title>
      </cc:Work>
    </rdf:RDF>
  </metadata>
  <g
     inkscape:label="Capa 1"
     inkscape:groupmode="layer"
     id="layer1"
     transform="translate(0,-282.97706)">
    <g
       id="g4693"
       transform="matrix(0.48544888,0,0,0.48544888,64.730765,220.62066)">
      <g
         id="g4681">
        <path
           style="fill:#7c7e7d;fill-opacity:1;stroke:none;stroke-width:0.26458332px;stroke-linecap:butt;stroke-linejoin:miter;stroke-opacity:1"
           d="m -128.26703,150.86147 c -0.45772,1.2234 -0.0609,2.85025 1.14111,2.85092 1.35009,0.13418 2.40345,-0.7593 1.56193,-2.78005 -1.14707,-3.14042 -0.75423,-5.57212 -0.69331,-8.71254 l -1.20271,-0.40091 c -0.0163,3.49382 0.42079,6.24104 -0.80702,9.04258 z"
           id="path4640-6"
           inkscape:connector-curvature="0"
           sodipodi:nodetypes="cccccc" />
        <path
           style="fill:#c9cbc8;fill-opacity:1;stroke:none;stroke-width:0.26458332px;stroke-linecap:butt;stroke-linejoin:miter;stroke-opacity:1"
           d="m -128.90131,151.02625 c -0.45772,1.2234 -0.0609,2.85025 1.14111,2.85092 1.35009,0.13418 2.40345,-0.7593 1.56193,-2.78005 -1.14707,-3.14042 -0.75423,-5.57212 -0.69331,-8.71254 l -1.20271,-0.40091 c -0.0163,3.49382 0.42079,6.24104 -0.80702,9.04258 z"
           id="path4640"
           inkscape:connector-curvature="0"
           sodipodi:nodetypes="cccccc" />
      </g>
      <path
         sodipodi:nodetypes="ccccc"
         inkscape:connector-curvature="0"
         id="path4626"
         d="m -133.06957,138.11734 26.80193,-9.41599 26.947995,9.39831 -26.657805,10.54468 z"
         style="fill:#5b5d5c;fill-opacity:1;stroke:none;stroke-width:0.26458332px;stroke-linecap:butt;stroke-linejoin:miter;stroke-opacity:1" />
      <path
         inkscape:connector-curvature="0"
         id="path4628"
         d="m -105.97745,148.64434 -0.12855,2.22604 26.994222,-10.82441 -0.207865,-1.94631 z"
         style="fill:#2f2f2f;fill-opacity:1;stroke:none;stroke-width:0.26458332px;stroke-linecap:butt;stroke-linejoin:miter;stroke-opacity:1" />
      <path
         inkscape:connector-curvature="0"
         id="path4630"
         d="m -133.06957,138.11734 0.0362,1.99545 26.92741,10.75759 0.12855,-2.22604 z"
         style="fill:#797b7a;fill-opacity:1;stroke:none;stroke-width:0.26458332px;stroke-linecap:butt;stroke-linejoin:miter;stroke-opacity:1" />
      <path
         sodipodi:nodetypes="ccccc"
         inkscape:connector-curvature="0"
         id="path4632"
         d="m -119.9372,145.39136 2.40543,1.00226 -0.20046,7.95127 c -1.01213,-0.56301 -1.74691,-1.2647 -2.40542,-2.00452 z"
         style="fill:none;stroke:none;stroke-width:0.26458332px;stroke-linecap:butt;stroke-linejoin:miter;stroke-opacity:1" />
      <path
         sodipodi:nodetypes="cccccc"
         inkscape:connector-curvature="0"
         id="path4634"
         d="m -117.73223,154.34489 c 7.37113,3.39594 15.03548,3.85974 23.118819,0.13363 v -8.21854 l -11.492589,4.6104 -11.4383,-4.58116 z"
         style="fill:#5b5d5c;fill-opacity:1;stroke:none;stroke-width:0.26458332px;stroke-linecap:butt;stroke-linejoin:miter;stroke-opacity:1" />
      <path
         sodipodi:nodetypes="ccccc"
         inkscape:connector-curvature="0"
         id="path4636"
         d="m -92.349971,145.31619 -2.26344,0.94379 2e-6,8.21854 c 0.82408,-0.25577 1.648161,-0.79381 2.472241,-1.9377 z"
         style="fill:#333333;fill-opacity:1;stroke:none;stroke-width:0.26458332px;stroke-linecap:butt;stroke-linejoin:miter;stroke-opacity:1" />
      <path
         sodipodi:nodetypes="ccccc"
         inkscape:connector-curvature="0"
         id="path4638"
         d="m -119.73072,152.39816 c -0.0627,-0.34546 -0.0615,-6.90609 0.001,-6.9675 1.03843,0.34383 1.24326,0.32038 2.1851,0.85856 -0.0568,2.732 -0.11592,5.69405 -0.18793,8.05567 -0.81194,-0.68574 -1.71173,-1.15525 -1.99849,-1.94673 z"
         style="opacity:1;fill:#7c7e7d;fill-opacity:1;stroke:none;stroke-width:0.06681738;stroke-opacity:1" />
    </g>
  </g>
</svg>
