<?xml version="1.0" encoding="UTF-8" standalone="no"?>
<!-- Created with Inkscape (http://www.inkscape.org/) -->

<svg
   xmlns:dc="http://purl.org/dc/elements/1.1/"
   xmlns:cc="http://creativecommons.org/ns#"
   xmlns:rdf="http://www.w3.org/1999/02/22-rdf-syntax-ns#"
   xmlns:svg="http://www.w3.org/2000/svg"
   xmlns="http://www.w3.org/2000/svg"
   xmlns:sodipodi="http://sodipodi.sourceforge.net/DTD/sodipodi-0.dtd"
   xmlns:inkscape="http://www.inkscape.org/namespaces/inkscape"
   width="100"
   height="53"
   viewBox="0 0 26.458332 14.022917"
   version="1.1"
   id="svg4604"
   inkscape:version="0.92.4 (5da689c313, 2019-01-14)"
   sodipodi:docname="cine.svg">
  <defs
     id="defs4598" />
  <sodipodi:namedview
     id="base"
     pagecolor="#ffffff"
     bordercolor="#666666"
     borderopacity="1.0"
     inkscape:pageopacity="0.0"
     inkscape:pageshadow="2"
     inkscape:zoom="4.9356053"
     inkscape:cx="-0.28953005"
     inkscape:cy="22.197465"
     inkscape:document-units="px"
     inkscape:current-layer="layer5"
     showgrid="false"
     showguides="true"
     inkscape:guide-bbox="true"
     units="px"
     inkscape:window-width="1920"
     inkscape:window-height="1017"
     inkscape:window-x="1358"
     inkscape:window-y="-8"
     inkscape:window-maximized="1">
    <sodipodi:guide
       position="-140.70163,185.30283"
       orientation="0,1"
       id="guide4657"
       inkscape:locked="false" />
  </sodipodi:namedview>
  <metadata
     id="metadata4601">
    <rdf:RDF>
      <cc:Work
         rdf:about="">
        <dc:format>image/svg+xml</dc:format>
        <dc:type
           rdf:resource="http://purl.org/dc/dcmitype/StillImage" />
        <dc:title></dc:title>
      </cc:Work>
    </rdf:RDF>
  </metadata>
  <g
     inkscape:label="Capa 1"
     inkscape:groupmode="layer"
     id="layer1"
     transform="translate(0,-282.97706)"
     sodipodi:insensitive="true"
     style="display:none">
    <g
       id="g4693"
       transform="matrix(0.48544888,0,0,0.48544888,64.730765,220.62066)">
      <g
         id="g4681">
        <path
           style="fill:#7c7e7d;fill-opacity:1;stroke:none;stroke-width:0.26458332px;stroke-linecap:butt;stroke-linejoin:miter;stroke-opacity:1"
           d="m -128.26703,150.86147 c -0.45772,1.2234 -0.0609,2.85025 1.14111,2.85092 1.35009,0.13418 2.40345,-0.7593 1.56193,-2.78005 -1.14707,-3.14042 -0.75423,-5.57212 -0.69331,-8.71254 l -1.20271,-0.40091 c -0.0163,3.49382 0.42079,6.24104 -0.80702,9.04258 z"
           id="path4640-6"
           inkscape:connector-curvature="0"
           sodipodi:nodetypes="cccccc" />
        <path
           style="fill:#c9cbc8;fill-opacity:1;stroke:none;stroke-width:0.26458332px;stroke-linecap:butt;stroke-linejoin:miter;stroke-opacity:1"
           d="m -128.90131,151.02625 c -0.45772,1.2234 -0.0609,2.85025 1.14111,2.85092 1.35009,0.13418 2.40345,-0.7593 1.56193,-2.78005 -1.14707,-3.14042 -0.75423,-5.57212 -0.69331,-8.71254 l -1.20271,-0.40091 c -0.0163,3.49382 0.42079,6.24104 -0.80702,9.04258 z"
           id="path4640"
           inkscape:connector-curvature="0"
           sodipodi:nodetypes="cccccc" />
      </g>
      <path
         sodipodi:nodetypes="ccccc"
         inkscape:connector-curvature="0"
         id="path4626"
         d="m -133.06957,138.11734 26.80193,-9.41599 26.947995,9.39831 -26.657805,10.54468 z"
         style="fill:#5b5d5c;fill-opacity:1;stroke:none;stroke-width:0.26458332px;stroke-linecap:butt;stroke-linejoin:miter;stroke-opacity:1" />
      <path
         inkscape:connector-curvature="0"
         id="path4628"
         d="m -105.97745,148.64434 -0.12855,2.22604 26.994222,-10.82441 -0.207865,-1.94631 z"
         style="fill:#2f2f2f;fill-opacity:1;stroke:none;stroke-width:0.26458332px;stroke-linecap:butt;stroke-linejoin:miter;stroke-opacity:1" />
      <path
         inkscape:connector-curvature="0"
         id="path4630"
         d="m -133.06957,138.11734 0.0362,1.99545 26.92741,10.75759 0.12855,-2.22604 z"
         style="fill:#797b7a;fill-opacity:1;stroke:none;stroke-width:0.26458332px;stroke-linecap:butt;stroke-linejoin:miter;stroke-opacity:1" />
      <path
         sodipodi:nodetypes="ccccc"
         inkscape:connector-curvature="0"
         id="path4632"
         d="m -119.9372,145.39136 2.40543,1.00226 -0.20046,7.95127 c -1.01213,-0.56301 -1.74691,-1.2647 -2.40542,-2.00452 z"
         style="fill:none;stroke:none;stroke-width:0.26458332px;stroke-linecap:butt;stroke-linejoin:miter;stroke-opacity:1" />
      <path
         sodipodi:nodetypes="cccccc"
         inkscape:connector-curvature="0"
         id="path4634"
         d="m -117.73223,154.34489 c 7.37113,3.39594 15.03548,3.85974 23.118819,0.13363 v -8.21854 l -11.492589,4.6104 -11.4383,-4.58116 z"
         style="fill:#5b5d5c;fill-opacity:1;stroke:none;stroke-width:0.26458332px;stroke-linecap:butt;stroke-linejoin:miter;stroke-opacity:1" />
      <path
         sodipodi:nodetypes="ccccc"
         inkscape:connector-curvature="0"
         id="path4636"
         d="m -92.349971,145.31619 -2.26344,0.94379 2e-6,8.21854 c 0.82408,-0.25577 1.648161,-0.79381 2.472241,-1.9377 z"
         style="fill:#333333;fill-opacity:1;stroke:none;stroke-width:0.26458332px;stroke-linecap:butt;stroke-linejoin:miter;stroke-opacity:1" />
      <path
         sodipodi:nodetypes="ccccc"
         inkscape:connector-curvature="0"
         id="path4638"
         d="m -119.73072,152.39816 c -0.0627,-0.34546 -0.0615,-6.90609 0.001,-6.9675 1.03843,0.34383 1.24326,0.32038 2.1851,0.85856 -0.0568,2.732 -0.11592,5.69405 -0.18793,8.05567 -0.81194,-0.68574 -1.71173,-1.15525 -1.99849,-1.94673 z"
         style="opacity:1;fill:#7c7e7d;fill-opacity:1;stroke:none;stroke-width:0.06681738;stroke-opacity:1" />
    </g>
  </g>
  <g
     inkscape:groupmode="layer"
     id="layer4"
     inkscape:label="Capa 2"
     sodipodi:insensitive="true"
     style="display:none">
    <path
       style="opacity:1;fill:#ff0000;fill-opacity:1;stroke:none;stroke-width:0.81043756;stroke-opacity:1"
       d=""
       id="path4779"
       inkscape:connector-curvature="0"
       transform="scale(0.26458333)" />
    <path
       style="opacity:1;fill:#ff0000;fill-opacity:1;stroke:none;stroke-width:0.81043756;stroke-opacity:1"
       d=""
       id="path4785"
       inkscape:connector-curvature="0"
       transform="scale(0.26458333)" />
    <path
       style="opacity:1;fill:#000000;fill-opacity:1;stroke:none;stroke-width:0.81043756;stroke-opacity:1"
       d=""
       id="path4787"
       inkscape:connector-curvature="0"
       transform="scale(0.26458333)" />
    <g
       id="g4948"
       transform="matrix(0.14648074,0,0,0.14648074,26.456014,13.034047)">
      <path
         inkscape:connector-curvature="0"
         id="path4924"
         d="m -101.81368,-68.641716 c -1.20738,-0.246086 -2.30284,-1.170093 -5.66255,-4.776301 -3.23333,-3.470555 -4.46566,-4.983075 -4.4607,-5.474909 0.002,-0.195797 0.7256,-1.658646 1.60805,-3.250776 0.88245,-1.592128 1.62865,-2.965019 1.65823,-3.050863 0.0754,-0.218768 34.089045,-0.311862 35.588193,-0.09741 l 1.225902,0.175369 1.364487,2.504985 c 2.020909,3.710069 2.032059,3.747863 1.364197,4.623475 -0.886449,1.162195 -4.61007,5.236358 -6.359845,6.958557 -2.749968,2.706635 -1.559433,2.496286 -14.366695,2.538344 -6.073679,0.01995 -11.455349,-0.04777 -11.959269,-0.150474 z m 14.905617,-1.894467 c 1.31473,-0.670727 1.464339,-1.089245 0.832813,-2.329722 -0.649833,-1.276432 -3.204885,-4.288883 -3.910277,-4.61028 -0.474983,-0.216419 -0.621874,-0.147154 -1.50385,0.709136 -1.161806,1.127969 -2.743237,3.278296 -3.180328,4.324406 -0.294487,0.704805 -0.284967,0.774401 0.163554,1.195765 1.554192,1.460088 5.420318,1.821707 7.598088,0.710695 z m 2.82521,-3.483697 c 0.449932,-1.501741 0.327131,-3.697081 -0.281123,-5.025681 -0.671073,-1.465821 -1.269039,-1.794777 -2.297895,-1.264137 -0.399638,0.206118 -1.089319,0.603237 -1.532628,0.882486 l -0.806014,0.507725 0.880729,1.114205 c 0.484402,0.612815 1.359461,2.06819 1.944577,3.234166 1.003826,2.000361 1.085461,2.1004 1.446982,1.77323 0.210725,-0.190704 0.501142,-0.740601 0.645372,-1.221994 z m -10.32464,-0.632447 c 0.514895,-0.994196 1.31576,-2.310389 1.779699,-2.924873 0.463941,-0.614487 0.843529,-1.197494 0.843529,-1.29557 0,-0.312999 -2.25125,-1.555504 -2.818361,-1.555504 -1.734409,0 -2.811949,4.255945 -1.70889,6.74959 0.250774,0.566923 0.560075,0.969912 0.706866,0.920983 0.143544,-0.04785 0.682265,-0.90043 1.197157,-1.894626 z m 6.181215,-6.026211 c 2.369235,-0.940078 1.393496,-1.85865 -1.999041,-1.881918 -2.881233,-0.01976 -4.567973,0.932535 -2.896942,1.635546 2.521456,1.060786 2.807203,1.075166 4.895983,0.246372 z"
         style="opacity:1;fill:#999999;fill-opacity:1;stroke:none;stroke-width:0.21442828;stroke-opacity:1" />
      <path
         sodipodi:nodetypes="cccccccsccscscc"
         inkscape:connector-curvature="0"
         id="path4922"
         d="m -53.194362,-81.65358 c -2.971202,-0.785926 -3.596492,-0.880824 -5.896777,-0.894932 -2.315393,-0.01421 -2.680076,0.03684 -3.640712,0.509548 -0.594812,0.292695 -1.715333,1.192652 -2.530326,2.032256 -0.809557,0.834002 -1.529996,1.413323 -1.613326,1.297311 -0.821368,-1.143466 -1.906135,-2.949046 -2.421658,-4.030806 l -0.631481,-1.325088 0.626925,-0.568074 c 0.805752,-0.730113 3.274928,-2.171996 4.762926,-2.781329 4.117011,-0.754774 6.466945,-0.929698 10.140176,0.40319 3.074702,1.115706 7.159362,2.964555 10.913318,4.742103 l 2.740146,1.297495 0.857761,1.865442 c 0.471768,1.025994 1.058267,2.658371 1.025356,2.747247 -4.449895,-2.477896 -9.717876,-4.062438 -14.332328,-5.294363 z"
         style="opacity:1;fill:#4d4d4d;fill-opacity:1;stroke:none;stroke-width:0.21442828;stroke-opacity:1" />
      <path
         sodipodi:nodetypes="cccscccccscssc"
         inkscape:connector-curvature="0"
         id="path4920"
         d="m -140.85895,-77.458614 c 0.17741,-1.228539 1.55512,-3.0288 1.55512,-3.0288 4.71353,-2.847885 10.29638,-5.329003 15.82869,-6.788218 2.42242,-0.614494 4.74291,-0.687112 6.64974,-0.208097 1.73379,0.435546 5.01813,2.104877 5.86954,2.983315 l 0.69484,0.716888 -0.6644,1.316149 c -0.54226,1.074227 -1.58355,2.791354 -2.40835,3.971467 -0.0798,0.114178 -0.8278,-0.436438 -1.66223,-1.223592 -1.68458,-1.589159 -3.18669,-2.453389 -4.60114,-2.647262 -1.26398,-0.173249 -4.88366,0.25459 -7.63659,0.902628 -3.36327,0.791716 -6.04285,1.663116 -9.86014,3.20652 -1.88903,0.763773 -3.76895,1.919362 -3.89962,1.919362 -0.1513,0 0.0424,-0.744831 0.13454,-1.12036 z"
         style="opacity:1;fill:#4d4d4d;fill-opacity:1;stroke:none;stroke-width:0.21442828;stroke-opacity:1" />
      <path
         sodipodi:nodetypes="ccsscscsssccscccsccscssssscscccccccscsccccsssssscccsscccccccccssccccccccc"
         inkscape:connector-curvature="0"
         id="path4797"
         d="m -34.693918,5.5911316 c -0.44708,-0.184668 -3.27195,-2.867513 -7.3721,-7.001442 -8.87244,-8.9455586 -14.437495,-13.8710746 -17.690327,-15.6573556 -2.759316,-1.515266 -1.862365,-1.458732 -24.980894,-1.574474 -24.236141,-0.121338 -32.053421,0.06133 -34.170861,0.798499 -3.20793,1.116798 -7.46028,4.686618 -17.61439,14.7871306 -4.30248,4.279768 -8.18612,8.021905 -8.63032,8.315861 -0.69082,0.457165 -0.97369,0.517328 -1.95579,0.415967 -2.27206,-0.234496 -5.90934,-2.031114 -8.11193,-4.006843 -7.48619,-6.715143 -7.8499,-22.1197356 -1.05373,-44.6291126 2.76998,-9.174366 8.53378,-24.395484 11.22604,-29.645863 1.29482,-2.525143 1.69182,-2.860394 5.63177,-4.755906 4.17971,-2.010855 8.34396,-3.562514 12.75849,-4.753989 2.73179,-0.737306 6.76808,-1.196509 9.03672,-0.509905 1.28192,0.356487 3.54796,2.872426 10.03029,9.935983 1.81419,1.976848 3.60273,3.782279 3.97454,4.01207 1.25343,0.774666 3.18642,0.885619 14.277828,0.819542 l 10.605334,-0.06318 1.072142,-0.528587 c 1.308335,-0.645039 3.394188,-2.702111 8.955915,-8.83234 5.076777,-5.595715 5.442773,-5.843042 8.598183,-5.810369 3.072612,0.03182 10.11549,1.954123 16.40287,4.477049 4.48495,1.79967 6.70942,3.174471 7.73663,4.781508 2.56558,4.013771 9.55635,22.566208 12.85306,34.110056 2.97465,10.416133 3.79263,16.130053 3.61222,25.233016 -0.12901,6.5096016 -0.37651,7.8476476 -2.11062,11.4106106 -0.93202,1.914958 -1.34527,2.48924697 -2.94211,4.088626 -1.90654,1.909566 -3.68964,3.02804 -6.468,4.057155 -1.99075,0.73738 -2.85867,0.861811 -3.67096,0.526293 z M -105.17421,-25.922397 c 4.09871,-1.204343 7.375718,-4.539477 8.427298,-8.576782 0.419711,-1.611375 0.412358,-4.282122 -0.01635,-5.944938 -0.84586,-3.280688 -3.328148,-6.246503 -6.574478,-7.855122 l -1.82769,-0.905658 -3.18767,0.0027 c -3.51718,0.0029 -4.57909,0.25395 -6.5113,1.53914 -4.94291,3.287733 -6.87483,9.052364 -4.8429,14.4507 0.58491,1.553943 0.94143,2.176979 2.02579,3.540104 1.51724,1.907292 4.51657,3.618498 7.16969,4.090514 1.40772,0.250452 3.85827,0.09407 5.33763,-0.340619 z m 36.73352,-2.524209 c 3.325519,-0.918361 5.832713,-3.036708 7.283961,-6.154276 0.497081,-1.067826 0.53848,-1.395811 0.53848,-4.265974 0,-2.816231 -0.04747,-3.210237 -0.503806,-4.181351 -1.237909,-2.634358 -3.657278,-4.980175 -6.098135,-5.912744 -1.514637,-0.578691 -4.762598,-0.790432 -6.522011,-0.425178 -2.942881,0.610939 -5.582947,2.67852 -7.135329,5.588069 l -0.857713,1.607566 v 3.323638 3.32364 l 0.82971,1.552786 c 1.397185,2.614799 4.091384,4.820752 6.782493,5.553359 1.311728,0.357095 4.373322,0.351957 5.68235,-0.0096 z m -55.3462,-21.792558 c 2.91228,-0.42097 6.0075,-2.723544 7.55547,-5.62062 1.39238,-3.133751 1.53514,-6.754337 5.8e-4,-9.69569 -2.19623,-4.209563 -6.76437,-6.584275 -11.25232,-5.923021 -6.75043,1.435461 -9.49113,6.708758 -9.127,12.240956 1.03903,6.858138 7.29859,9.728741 12.82327,8.998375 z m 24.600138,-7.75128 c 1.02887,-0.578257 1.80457,-2.019586 1.61013,-2.991787 -0.30105,-1.505249 -1.58527,-2.543876 -3.145398,-2.543876 -1.19442,0 -2.34604,0.630853 -2.83159,1.959024 -0.4226,1.455227 0.12605,2.817171 1.53975,3.679154 0.8976,0.547304 1.79665,0.476639 2.827108,-0.102515 z m 20.621212,0.176284 c 2.565874,-1.086019 2.233634,-4.931005 -0.493667,-5.713182 -1.058003,-0.303432 -2.184718,0.07301 -3.000941,1.002638 -1.224403,1.499641 -0.553662,4.005446 0.96819,4.701852 0.835646,0.368861 1.66869,0.371729 2.526418,0.0087 z"
         style="opacity:1;fill:#cccccc;fill-opacity:1;stroke:none;stroke-width:0.21442828;stroke-opacity:1" />
      <path
         inkscape:connector-curvature="0"
         id="path4799"
         d="m -109.54298,-27.987565 c -1.64229,-0.606081 -1.7193,-0.780679 -1.95591,-4.43421 l -0.1354,-2.090675 h -1.55674 c -0.85621,0 -2.1552,-0.06255 -2.88663,-0.139001 -1.29041,-0.134874 -1.34307,-0.164844 -1.77412,-1.009775 -0.57578,-1.128617 -0.61738,-2.77496 -0.0992,-3.926586 0.47331,-1.051935 0.76711,-1.141584 3.75679,-1.146341 1.13513,-0.0019 2.18272,-0.07878 2.32799,-0.171056 0.16505,-0.104841 0.31744,-1.008449 0.40629,-2.409034 0.0782,-1.232694 0.22409,-2.463038 0.3242,-2.734098 0.25456,-0.689242 1.5326,-1.161161 3.23469,-1.194419 1.35829,-0.02654 1.48232,0.01233 2.14284,0.671398 0.69861,0.697077 0.70138,0.708361 0.77935,3.164555 0.0909,2.862656 -0.20292,2.601407 3.0828,2.741302 2.27559,0.09689 2.62388,0.251712 3.093478,1.375138 0.384668,0.920237 0.366443,2.932925 -0.03356,3.706439 -0.422619,0.817256 -1.367338,1.068764 -4.020188,1.070282 l -2.09068,0.0013 -0.0121,2.090675 c -0.0162,2.793804 -0.26273,3.465655 -1.48889,4.05715 -1.33801,0.645451 -2.11217,0.739767 -3.09499,0.37706 z"
         style="opacity:1;fill:#000000;fill-opacity:1;stroke:none;stroke-width:0.21442828;stroke-opacity:1" />
      <g
         transform="translate(-20.799543,11.579126)"
         id="g4860">
        <circle
           style="opacity:1;fill:#0066ff;fill-opacity:1;stroke:none;stroke-width:0.38451016;stroke-opacity:1"
           id="path4819"
           cx="-41.16333"
           cy="-71.533966"
           r="4.8125095" />
        <text
           xml:space="preserve"
           style="font-style:normal;font-weight:normal;font-size:8.46666622px;line-height:1.25;font-family:sans-serif;letter-spacing:0px;word-spacing:0px;fill:#ffffff;fill-opacity:1;stroke:none;stroke-width:0.26458332"
           x="-43.652065"
           y="-69.218864"
           id="text4803"><tspan
             sodipodi:role="line"
             id="tspan4801"
             x="-43.652065"
             y="-69.218864"
             style="font-size:8.46666622px;fill:#ffffff;stroke-width:0.26458332">x</tspan></text>
        <circle
           style="opacity:1;fill:#ffcc00;fill-opacity:1;stroke:none;stroke-width:0.38451016;stroke-opacity:1"
           id="path4819-6"
           cx="-31.08865"
           cy="-80.325523"
           r="4.8125095" />
        <text
           xml:space="preserve"
           style="font-style:normal;font-weight:normal;font-size:8.46666622px;line-height:1.25;font-family:sans-serif;letter-spacing:0px;word-spacing:0px;fill:#ffffff;fill-opacity:1;stroke:none;stroke-width:0.26458332"
           x="-33.674538"
           y="-77.23941"
           id="text4811"><tspan
             sodipodi:role="line"
             id="tspan4809"
             x="-33.674538"
             y="-77.23941"
             style="font-size:8.46666622px;fill:#ffffff;stroke-width:0.26458332">Y</tspan></text>
        <circle
           style="opacity:1;fill:#ff0000;fill-opacity:1;stroke:none;stroke-width:0.38451016;stroke-opacity:1"
           id="path4819-9"
           cx="-21.013969"
           cy="-71.533966"
           r="4.8125095" />
        <text
           xml:space="preserve"
           style="font-style:normal;font-weight:normal;font-size:8.46666622px;line-height:1.25;font-family:sans-serif;letter-spacing:0px;word-spacing:0px;fill:#ffffff;fill-opacity:1;stroke:none;stroke-width:0.26458332"
           x="-24.033939"
           y="-68.447853"
           id="text4815"><tspan
             sodipodi:role="line"
             id="tspan4813"
             x="-24.033939"
             y="-68.447853"
             style="font-size:8.46666622px;fill:#ffffff;stroke-width:0.26458332">B</tspan></text>
        <circle
           style="opacity:1;fill:#00ff00;fill-opacity:1;stroke:none;stroke-width:0.38451016;stroke-opacity:1"
           id="path4819-2"
           cx="-31.08865"
           cy="-61.884689"
           r="4.8125095" />
        <text
           xml:space="preserve"
           style="font-style:normal;font-weight:normal;font-size:8.46666622px;line-height:1.25;font-family:sans-serif;letter-spacing:0px;word-spacing:0px;fill:#ffffff;fill-opacity:1;stroke:none;stroke-width:0.26458332"
           x="-33.982529"
           y="-58.798573"
           id="text4807"><tspan
             sodipodi:role="line"
             id="tspan4805"
             x="-33.982529"
             y="-58.798573"
             style="font-size:8.46666622px;fill:#ffffff;stroke-width:0.26458332">A</tspan></text>
      </g>
      <circle
         r="7.933846"
         cy="-38.940865"
         cx="-71.203995"
         id="path4862"
         style="opacity:1;fill:#cccccc;fill-opacity:1;stroke:none;stroke-width:0.26458332;stroke-opacity:1" />
      <circle
         r="7.933846"
         cy="-60.81255"
         cx="-126.29825"
         id="path4862-4"
         style="opacity:1;fill:#cccccc;fill-opacity:1;stroke:none;stroke-width:0.26458332;stroke-opacity:1" />
      <circle
         r="5.2959876"
         cy="-60.798744"
         cx="-125.72766"
         id="path4883"
         style="opacity:1;fill:#1a1a1a;fill-opacity:1;stroke:none;stroke-width:0.26458332;stroke-opacity:1" />
      <circle
         r="5.2959876"
         cy="-39.155296"
         cx="-71.833473"
         id="path4883-8"
         style="opacity:1;fill:#1a1a1a;fill-opacity:1;stroke:none;stroke-width:0.26458332;stroke-opacity:1" />
    </g>
  </g>
  <g
     inkscape:groupmode="layer"
     id="layer5"
     inkscape:label="Capa 3">
    <path
       style="fill:#000000;stroke-width:0.04632858"
       d="M 7.8688348,13.930036 C 7.6707937,13.862767 7.4611697,13.641361 7.3933794,13.427856 7.3686821,13.350072 7.1685018,12.160646 6.9485347,10.784687 6.6653728,9.0134282 6.5554404,8.2133889 6.5720407,8.0447353 6.5950046,7.8114339 6.5926945,7.8059701 6.4598547,7.7794021 6.3783775,7.7631072 6.3070445,7.7102333 6.2812006,7.6469803 6.2575387,7.5890684 6.1717809,7.1488134 6.0906278,6.6686372 5.9445989,5.8045961 5.9439834,5.7943208 6.0309674,5.6725729 6.1294739,5.5346978 7.1192876,5.0295549 11.351899,2.9570815 12.8043,2.2459215 14.709116,1.3131175 15.584824,0.88418335 L 17.17702,0.10430237 17.497003,0.3628368 c 0.299193,0.24173828 0.339711,0.29790407 0.623633,0.8645004 0.23475,0.4684685 0.289684,0.6146 0.242101,0.6440184 -0.03385,0.020932 -1.368053,0.6381446 -2.964893,1.3715908 -1.596839,0.7334472 -2.896454,1.3404273 -2.888036,1.3488463 0.0084,0.00839 0.241258,-0.057532 0.517421,-0.1465678 2.56083,-0.8255754 4.888926,-1.5595627 4.946698,-1.5595627 0.05336,0 0.502442,0.2537146 0.621308,0.3510139 0.0088,0.00724 0.08395,0.3116936 0.16691,0.6765694 0.144652,0.6362212 0.147268,0.6647902 0.06385,0.6970895 -0.06133,0.023743 -0.08005,0.064737 -0.06347,0.1389856 0.01293,0.05792 0.09806,0.5326873 0.189174,1.0550427 0.09111,0.5223543 0.331221,1.8636405 0.533577,2.9806337 0.202356,1.1169943 0.367919,2.134159 0.367919,2.260365 0,0.136913 -0.03683,0.301659 -0.09131,0.408454 -0.105362,0.206528 -0.376044,0.445248 -0.579205,0.510815 -0.125586,0.04053 -5.528169,1.095344 -8.896337,1.73694 -1.4060531,0.267836 -2.1066636,0.334047 -2.4175062,0.228465 z M 9.158307,12.498021 c 4.763459,-0.927161 9.115531,-1.830504 9.455598,-1.962664 0.120661,-0.04689 0.176873,-0.201079 0.09235,-0.253315 -0.01928,-0.01191 -0.222546,0.02847 -0.451704,0.08976 -0.673075,0.179995 -3.229253,0.718056 -6.92582,1.457847 -1.8983138,0.379908 -3.4983875,0.701928 -3.5557191,0.7156 -0.1317139,0.03141 -0.1454281,0.208406 -0.016148,0.208406 0.04845,0 0.6790982,-0.115033 1.4014397,-0.255631 z m -0.7598561,-0.60326 c 0.2742411,-0.06132 0.3358823,-0.09143 0.3358823,-0.164051 0,-0.06399 -0.032497,-0.08894 -0.1158214,-0.08894 -0.2051953,0 -0.1233546,-0.08433 0.1387732,-0.142988 0.3502884,-0.07839 0.5329913,-0.196286 0.5329913,-0.343927 0,-0.204398 -0.181453,-0.234677 -0.6949288,-0.115963 -0.7872836,0.182018 -0.7875862,0.182126 -0.7875862,0.280364 0,0.06605 0.031645,0.09087 0.1158216,0.09087 0.1042397,0 0.1158215,0.01853 0.1158215,0.185314 0,0.133838 -0.019304,0.185313 -0.069493,0.185313 -0.043726,0 -0.069493,0.0441 -0.069493,0.118944 0,0.09168 0.018581,0.113355 0.081075,0.09456 0.044591,-0.01341 0.2322221,-0.05818 0.4169573,-0.09949 z m 0.057911,-0.569933 c 0,-0.05284 0.2702381,-0.123196 0.31217,-0.08127 0.039975,0.03998 0.00757,0.05909 -0.161602,0.09534 -0.090998,0.0195 -0.150568,0.01393 -0.150568,-0.01407 z m 1.4889416,0.219695 c 0.3186145,-0.06398 0.4623865,-0.170141 0.4842025,-0.357511 0.02023,-0.173758 -0.07942,-0.244783 -0.348653,-0.248499 -0.5291853,-0.0073 -0.945113,0.371992 -0.6412823,0.584805 0.122433,0.08575 0.1736255,0.0879 0.5057328,0.02121 z M 9.7998908,11.323387 c 0,-0.04459 0.3690102,-0.11564 0.4064032,-0.07825 0.03102,0.03102 -0.202942,0.118655 -0.3167621,0.118655 -0.049303,0 -0.089641,-0.01819 -0.089641,-0.04041 z m 0.037642,-0.176555 c 0.033443,-0.01338 0.073402,-0.01173 0.088796,0.0037 0.015395,0.01539 -0.011966,0.02634 -0.060804,0.02433 -0.05397,-0.0022 -0.064948,-0.0132 -0.02799,-0.02799 z m 1.3406332,0.101714 c 0.09112,-0.03277 0.06757,-0.162721 -0.0295,-0.162721 -0.07087,0 -0.09816,-0.05699 -0.144231,-0.301136 -0.03125,-0.165625 -0.07371,-0.301136 -0.09437,-0.301136 -0.02065,0 -0.144182,0.02461 -0.274512,0.0547 -0.173448,0.04004 -0.233209,0.07419 -0.22296,0.127403 0.0077,0.03999 0.04499,0.07271 0.08286,0.07271 0.09146,0 0.121621,0.05446 0.16037,0.289555 0.02681,0.162602 0.01964,0.196896 -0.04111,0.196896 -0.04154,0 -0.07357,0.03854 -0.07357,0.08854 0,0.0848 0.01225,0.08574 0.289554,0.02229 0.159254,-0.03644 0.315614,-0.07564 0.347464,-0.08709 z m 0.520838,-0.109349 c 0.204484,-0.05204 0.305467,-0.101347 0.315426,-0.154034 0.0096,-0.05098 -0.02136,-0.08269 -0.09058,-0.09265 -0.07697,-0.01108 -0.113581,-0.05622 -0.136323,-0.168078 -0.0171,-0.08411 -0.04016,-0.161977 -0.05122,-0.173048 -0.01107,-0.01107 -0.138575,0.0047 -0.283343,0.03508 -0.201705,0.04231 -0.263211,0.07463 -0.263211,0.138302 0,0.05775 0.03533,0.08309 0.115822,0.08309 0.09265,0 0.115821,0.02317 0.115821,0.115822 0,0.07207 -0.02625,0.115822 -0.06949,0.115822 -0.0386,0 -0.06949,0.04118 -0.06949,0.09265 0,0.108024 0.01853,0.108337 0.416597,0.007 z m 1.142515,-0.281763 c 0.193109,-0.08768 0.230807,-0.14812 0.241249,-0.386765 0.0081,-0.183744 -0.159905,-0.240014 -0.493517,-0.165355 -0.46345,0.103718 -0.679547,0.346155 -0.492637,0.552688 0.10673,0.117935 0.484553,0.117648 0.744905,-5.77e-4 z m -0.35457,-0.22994 c 0,-0.11403 0.08307,-0.142626 0.32143,-0.110655 l 0.193854,0.026 -0.130238,0.08587 c -0.176273,0.116223 -0.385046,0.115564 -0.385046,-0.0013 z m 1.346703,0.0093 c 0.138398,-0.04311 0.293329,-0.08097 0.34429,-0.08413 0.05096,-0.0031 0.203188,-0.03276 0.33828,-0.06579 0.185895,-0.04545 0.24176,-0.07851 0.229744,-0.135931 -0.0096,-0.04633 -0.05468,-0.07176 -0.115533,-0.06531 -0.08513,0.009 -0.104284,-0.02033 -0.131455,-0.201498 -0.03529,-0.2353441 -0.02593,-0.2333232 -0.49524,-0.1069525 -0.190396,0.051272 -0.214015,0.1484305 -0.04223,0.1737085 0.120635,0.01775 0.141449,0.214419 0.02733,0.258211 -0.149131,0.05723 -0.202236,0.02397 -0.251019,-0.157194 -0.02744,-0.101924 -0.07515,-0.185198 -0.106024,-0.185056 -0.05161,2.28e-4 -0.348875,0.07171 -0.483884,0.116335 -0.08538,0.02822 -0.01576,0.161379 0.08437,0.161379 0.05665,0 0.0971,0.04428 0.116422,0.127404 0.02712,0.116699 0.133367,0.243224 0.20425,0.243224 0.01598,0 0.1423,-0.03528 0.280699,-0.07839 z m -2.268299,-0.203148 c 0.136459,-0.09716 0.141718,-0.181771 0.01129,-0.181771 -0.08056,0 -0.250623,0.189784 -0.217737,0.242993 0.03216,0.05204 0.05823,0.04431 0.206438,-0.06122 z M 10.29795,9.6988738 c 4.533643,-1.045878 6.951201,-1.6382873 7.702102,-1.887356 0.197215,-0.065419 0.258153,-0.108078 0.269611,-0.1887574 0.01892,-0.1332377 -0.0042,-0.1317653 -0.540342,0.03444 C 16.848348,7.9302895 14.363866,8.5319442 14.349052,8.4757836 14.341187,8.4461681 14.214359,7.8486149 14.067095,7.1478948 13.831001,6.0245044 13.80803,5.8698196 13.87282,5.8396975 c 0.04042,-0.018793 0.730188,-0.2237026 1.53283,-0.4553627 2.084086,-0.6015132 2.24434,-0.6546325 2.261917,-0.7497662 0.01068,-0.057805 -0.01521,-0.081076 -0.0902,-0.081076 -0.05785,0 -0.961046,0.2507981 -2.007108,0.55733 C 14.524196,5.4173534 13.209673,5.8023875 12.649097,5.9664541 12.088521,6.1305207 10.889769,6.4827165 9.9852036,6.7491121 9.0806373,7.0155066 7.9768784,7.3405628 7.5324053,7.4714576 7.0879323,7.6023535 6.7074586,7.7198405 6.6869085,7.7325415 c -0.07096,0.043857 -0.037105,0.1566102 0.047024,0.1566102 0.046414,0 0.5825728,-0.144871 1.1914657,-0.3219353 0.6088927,-0.1770643 1.1115957,-0.3174174 1.1171177,-0.3118949 0.013469,0.013465 0.4266941,2.4153473 0.4172445,2.4252398 -0.00408,0.0043 -0.4764718,0.1163009 -1.0497673,0.2489607 -0.5732953,0.132661 -1.089263,0.258953 -1.1465946,0.280648 -0.1165218,0.0441 -0.1427702,0.180725 -0.03472,0.180725 0.038236,0 1.419407,-0.311408 3.0692695,-0.6920191 z M 9.6602544,9.5685611 C 9.6599042,9.5494504 9.5675133,9.0126176 9.4549586,8.3755993 9.3424038,7.738581 9.2645171,7.2042797 9.2818771,7.1882617 9.3251615,7.1483268 13.552111,5.9268453 13.570804,5.9488735 c 0.01577,0.018594 0.537943,2.5419413 0.537756,2.5986724 -1.4e-4,0.043794 -0.04127,0.054281 -2.31654,0.5907292 C 9.8326006,9.600251 9.6614945,9.6347871 9.6602544,9.5685611 Z M 12.048529,8.7940222 c 0.200039,-0.101274 0.234483,-0.1065741 0.301054,-0.046332 0.04134,0.037418 0.151707,0.06803 0.245253,0.06803 0.150537,0 0.170084,-0.013308 0.170084,-0.1158217 0,-0.097803 -0.02162,-0.1158206 -0.138985,-0.1158206 -0.165815,0 -0.173403,-0.053023 -0.04735,-0.3308241 0.175364,-0.3864646 0.08829,-0.9280229 -0.190399,-1.1842261 -0.471332,-0.433302 -1.285301,-0.2546552 -1.586168,0.3481258 -0.147327,0.2951648 -0.175669,0.4790101 -0.11643,0.7552342 0.130441,0.6082217 0.792749,0.9102997 1.362937,0.6216337 z M 11.494193,8.6039329 c -0.213421,-0.213421 0.111749,-0.5390351 0.369588,-0.3700931 0.137631,0.090179 0.1457,0.225435 0.0209,0.3502389 -0.111043,0.1110428 -0.290186,0.1201519 -0.390483,0.019852 z M 10.938251,8.1406472 c -0.100299,-0.1002987 -0.09119,-0.2794405 0.01985,-0.3904832 0.111546,-0.1115471 0.200224,-0.1174587 0.297826,-0.019852 0.154625,0.1546251 0.04663,0.483141 -0.15884,0.483141 -0.04732,0 -0.1188,-0.032762 -0.158841,-0.072802 z m 1.115757,-0.1509063 c -0.208182,-0.2300389 0.04271,-0.6141858 0.288637,-0.441934 0.136996,0.095957 0.13413,0.3570933 -0.005,0.4545374 -0.133406,0.09344 -0.189952,0.090934 -0.283647,-0.012606 z m -0.514212,-0.050086 c -0.04477,-0.072445 0.02654,-0.1894947 0.11546,-0.1894947 0.104546,0 0.146203,0.060479 0.108794,0.1579694 -0.03044,0.079345 -0.181569,0.1005923 -0.224254,0.031524 z M 11.432974,7.4943353 c -0.128995,-0.091238 -0.133452,-0.2245741 -0.01158,-0.3464437 0.171329,-0.1713289 0.463286,-0.098075 0.463286,0.1162328 0,0.2266442 -0.265461,0.3619362 -0.451703,0.2302109 z m 3.822108,2.8191877 c 0.264911,-0.06196 0.335882,-0.09634 0.335882,-0.162743 0,-0.05737 -0.03452,-0.08419 -0.108402,-0.08419 -0.0978,0 -0.114066,-0.0317 -0.166357,-0.3243013 -0.03188,-0.1783647 -0.06741,-0.3243001 -0.07898,-0.3243001 -0.08085,0 -0.619025,0.1560817 -0.618458,0.1793651 0.0019,0.078853 0.08424,0.1449832 0.149377,0.1199893 0.0779,-0.029888 0.101022,0.016821 0.152528,0.308064 0.02543,0.143823 0.016,0.170849 -0.06721,0.19261 -0.06531,0.01708 -0.08759,0.04931 -0.06848,0.09909 0.03552,0.09256 0.05981,0.09237 0.470102,-0.0036 z m 0.928061,-0.230651 c 0.09473,-0.04201 0.279178,-0.08136 0.409876,-0.087452 0.323828,-0.015091 0.499829,-0.1050944 0.518284,-0.2650553 0.0167,-0.1446979 -0.09675,-0.1790977 -0.168406,-0.051062 -0.05185,0.092643 -0.147389,0.043752 -0.147389,-0.075423 0,-0.1665992 -0.133942,-0.2433627 -0.366498,-0.210041 -0.6367,0.091227 -1.002063,0.2983876 -0.762602,0.432396 0.05157,0.028861 0.05891,0.052435 0.02317,0.074532 -0.07037,0.04349 -0.06653,0.1986823 0.0057,0.2278013 0.117795,0.04753 0.320509,0.02855 0.487938,-0.04569 z M 16.14691,9.8878651 c 0,-0.047611 0.140324,-0.1133488 0.172749,-0.080929 0.01127,0.011274 -0.02298,0.043773 -0.07613,0.072214 -0.05318,0.028462 -0.09663,0.032374 -0.09663,0.0087 z M 16.028362,9.6759564 c 0.04946,-0.039956 0.13181,-0.072644 0.182998,-0.072644 0.130173,0 0.03882,0.078905 -0.133943,0.1157 -0.132138,0.028137 -0.134556,0.026018 -0.04906,-0.04305 z m 1.793965,0.048031 c 0.514392,-0.1130321 0.720577,-0.2661386 0.566242,-0.4204732 -0.0829,-0.0829 -0.192919,-0.087955 -0.528676,-0.024278 -0.230094,0.043637 -0.326558,0.034094 -0.26614,-0.026323 0.01436,-0.014357 0.124775,-0.034136 0.245377,-0.043972 0.336455,-0.027413 0.485224,-0.070138 0.485224,-0.1393579 0,-0.1086464 -0.0724,-0.1160314 -0.400089,-0.040805 -0.674881,0.1549271 -0.895046,0.2920093 -0.731561,0.4554938 0.07967,0.07967 0.260177,0.089382 0.565123,0.030402 0.108842,-0.021048 0.207634,-0.022516 0.219539,-0.00325 0.02921,0.047244 -0.144835,0.090336 -0.371105,0.091888 -0.281821,0.00189 -0.393793,0.044707 -0.393793,0.1504502 0,0.103298 0.0055,0.1030253 0.609859,-0.029775 z M 6.8811896,7.1015638 C 6.9913948,6.9913579 6.999034,6.9021693 6.9049555,6.8240917 6.7351654,6.6831775 6.4168403,6.9559786 6.5557509,7.123356 6.6368059,7.221022 6.770698,7.212056 6.8811896,7.1015638 Z M 9.9453233,6.6826175 c 0.2512617,-0.077542 0.4568397,-0.1487051 0.4568397,-0.1581529 0,-0.026155 -0.886127,-0.4982025 -0.9022382,-0.4806345 -0.00774,0.00839 0.00772,0.1339151 0.03435,0.2788385 0.041104,0.2236983 0.036669,0.2814299 -0.029365,0.3822109 -0.042781,0.065293 -0.063978,0.118713 -0.047104,0.118713 0.016875,0 0.236257,-0.063436 0.487519,-0.140975 z M 8.7549954,6.563334 C 8.8724044,6.5182814 8.9362055,6.3665865 8.8708613,6.2878524 8.7500908,6.1423323 8.5026902,6.2387518 8.5026902,6.4313433 c 0,0.1550487 0.081335,0.1975981 0.2523052,0.1319907 z M 6.7864161,6.0153911 C 6.8822703,5.8998945 6.8273556,5.7366785 6.6871944,5.7204906 6.5441165,5.7039629 6.3960147,5.8787274 6.4449739,6.0063145 c 0.036451,0.094992 0.2650977,0.1010643 0.3414426,0.00912 z m 5.6145769,-0.068009 c 0.161939,-0.048744 0.482065,-0.1449265 0.711392,-0.2137335 L 13.529342,5.6085397 12.759333,5.2227348 11.989322,4.8369299 11.334728,5.0444644 c -0.360026,0.1141438 -0.654155,0.2223644 -0.653618,0.2404914 8.76e-4,0.029752 1.324352,0.7384674 1.395583,0.7473332 0.01642,0.00199 0.162363,-0.03617 0.3243,-0.084914 z M 16.114951,4.8383068 C 16.517805,4.7175027 16.84123,4.5987887 16.833671,4.5744974 16.82612,4.5502092 16.461393,4.3676969 16.023185,4.1689222 l -0.796742,-0.3614088 -0.773968,0.2455871 -0.773969,0.2455881 0.782497,0.3795577 c 0.430374,0.2087574 0.813769,0.3795913 0.85199,0.3796311 0.03823,3.89e-5 0.399103,-0.098768 0.801958,-0.2195706 z M 11.217416,4.4397097 C 11.58,4.2700326 11.82756,4.129714 11.789542,4.1154254 11.752679,4.1015719 11.380869,3.9761094 10.963286,3.8366193 L 10.204044,3.5830013 9.6081745,3.8668736 C 9.2804462,4.0230035 9.0123047,4.1640027 9.0123047,4.1802042 c 0,0.016203 0.2345385,0.110683 0.5211966,0.2099571 0.2866582,0.099271 0.6254357,0.2175781 0.7528397,0.2628992 0.127404,0.045325 0.245208,0.083152 0.261788,0.084075 0.01658,9.281e-4 0.31776,-0.132922 0.669287,-0.2974248 z m 6.859296,-0.9401942 c -0.01223,-0.044591 -0.04642,-0.1881628 -0.07598,-0.3190492 l -0.05374,-0.2379734 -0.365678,0.1198812 c -0.201123,0.065933 -0.354619,0.1313269 -0.341101,0.1453167 0.03031,0.031367 0.768476,0.3629462 0.820863,0.3687235 0.02083,0.00231 0.02785,-0.032311 0.01563,-0.076902 z M 13.998421,3.1350791 c 0.251621,-0.1176286 0.603428,-0.2819752 0.781794,-0.3652155 l 0.3243,-0.1513457 -0.162151,-0.045124 c -0.08918,-0.024823 -0.506139,-0.1432675 -0.926571,-0.26322 l -0.764422,-0.2180962 -0.740998,0.358271 c -0.425422,0.205691 -0.711514,0.36867 -0.671765,0.3826871 0.130694,0.046091 1.644401,0.5101904 1.673363,0.5130513 0.01593,0.00157 0.23483,-0.093377 0.48645,-0.211008 z m 3.288641,-1.5511646 c 0.226519,-0.1044201 0.418057,-0.1957554 0.425639,-0.2029601 0.0076,-0.00724 -0.04207,-0.1269999 -0.110353,-0.266212 L 17.47821,0.86162978 16.939963,0.73846606 C 16.643927,0.67072984 16.377049,0.61536002 16.346901,0.61543133 16.25752,0.61564107 14.925393,1.2626326 14.954472,1.2917102 c 0.03717,0.037166 1.703074,0.4746517 1.822975,0.4787364 0.05377,0.00178 0.283096,-0.082114 0.509615,-0.1865321 z"
       id="path4966"
       inkscape:connector-curvature="0" />
  </g>
</svg>
