<?xml version="1.0" encoding="UTF-8" standalone="no"?>
<!-- Created with Inkscape (http://www.inkscape.org/) -->

<svg
   xmlns:dc="http://purl.org/dc/elements/1.1/"
   xmlns:cc="http://creativecommons.org/ns#"
   xmlns:rdf="http://www.w3.org/1999/02/22-rdf-syntax-ns#"
   xmlns:svg="http://www.w3.org/2000/svg"
   xmlns="http://www.w3.org/2000/svg"
   xmlns:sodipodi="http://sodipodi.sourceforge.net/DTD/sodipodi-0.dtd"
   xmlns:inkscape="http://www.inkscape.org/namespaces/inkscape"
   width="100"
   height="53"
   viewBox="0 0 26.458332 14.022917"
   version="1.1"
   id="svg4604"
   inkscape:version="0.92.4 (5da689c313, 2019-01-14)"
   sodipodi:docname="juegos.svg">
  <defs
     id="defs4598" />
  <sodipodi:namedview
     id="base"
     pagecolor="#ffffff"
     bordercolor="#666666"
     borderopacity="1.0"
     inkscape:pageopacity="0.0"
     inkscape:pageshadow="2"
     inkscape:zoom="9.8712107"
     inkscape:cx="54.132468"
     inkscape:cy="27.146924"
     inkscape:document-units="px"
     inkscape:current-layer="layer4"
     showgrid="false"
     showguides="true"
     inkscape:guide-bbox="true"
     units="px"
     inkscape:window-width="1920"
     inkscape:window-height="1017"
     inkscape:window-x="1358"
     inkscape:window-y="-8"
     inkscape:window-maximized="1">
    <sodipodi:guide
       position="-140.70163,185.30283"
       orientation="0,1"
       id="guide4657"
       inkscape:locked="false" />
  </sodipodi:namedview>
  <metadata
     id="metadata4601">
    <rdf:RDF>
      <cc:Work
         rdf:about="">
        <dc:format>image/svg+xml</dc:format>
        <dc:type
           rdf:resource="http://purl.org/dc/dcmitype/StillImage" />
        <dc:title></dc:title>
      </cc:Work>
    </rdf:RDF>
  </metadata>
  <g
     inkscape:label="Capa 1"
     inkscape:groupmode="layer"
     id="layer1"
     transform="translate(0,-282.97706)"
     sodipodi:insensitive="true"
     style="display:none">
    <g
       id="g4693"
       transform="matrix(0.48544888,0,0,0.48544888,64.730765,220.62066)">
      <g
         id="g4681">
        <path
           style="fill:#7c7e7d;fill-opacity:1;stroke:none;stroke-width:0.26458332px;stroke-linecap:butt;stroke-linejoin:miter;stroke-opacity:1"
           d="m -128.26703,150.86147 c -0.45772,1.2234 -0.0609,2.85025 1.14111,2.85092 1.35009,0.13418 2.40345,-0.7593 1.56193,-2.78005 -1.14707,-3.14042 -0.75423,-5.57212 -0.69331,-8.71254 l -1.20271,-0.40091 c -0.0163,3.49382 0.42079,6.24104 -0.80702,9.04258 z"
           id="path4640-6"
           inkscape:connector-curvature="0"
           sodipodi:nodetypes="cccccc" />
        <path
           style="fill:#c9cbc8;fill-opacity:1;stroke:none;stroke-width:0.26458332px;stroke-linecap:butt;stroke-linejoin:miter;stroke-opacity:1"
           d="m -128.90131,151.02625 c -0.45772,1.2234 -0.0609,2.85025 1.14111,2.85092 1.35009,0.13418 2.40345,-0.7593 1.56193,-2.78005 -1.14707,-3.14042 -0.75423,-5.57212 -0.69331,-8.71254 l -1.20271,-0.40091 c -0.0163,3.49382 0.42079,6.24104 -0.80702,9.04258 z"
           id="path4640"
           inkscape:connector-curvature="0"
           sodipodi:nodetypes="cccccc" />
      </g>
      <path
         sodipodi:nodetypes="ccccc"
         inkscape:connector-curvature="0"
         id="path4626"
         d="m -133.06957,138.11734 26.80193,-9.41599 26.947995,9.39831 -26.657805,10.54468 z"
         style="fill:#5b5d5c;fill-opacity:1;stroke:none;stroke-width:0.26458332px;stroke-linecap:butt;stroke-linejoin:miter;stroke-opacity:1" />
      <path
         inkscape:connector-curvature="0"
         id="path4628"
         d="m -105.97745,148.64434 -0.12855,2.22604 26.994222,-10.82441 -0.207865,-1.94631 z"
         style="fill:#2f2f2f;fill-opacity:1;stroke:none;stroke-width:0.26458332px;stroke-linecap:butt;stroke-linejoin:miter;stroke-opacity:1" />
      <path
         inkscape:connector-curvature="0"
         id="path4630"
         d="m -133.06957,138.11734 0.0362,1.99545 26.92741,10.75759 0.12855,-2.22604 z"
         style="fill:#797b7a;fill-opacity:1;stroke:none;stroke-width:0.26458332px;stroke-linecap:butt;stroke-linejoin:miter;stroke-opacity:1" />
      <path
         sodipodi:nodetypes="ccccc"
         inkscape:connector-curvature="0"
         id="path4632"
         d="m -119.9372,145.39136 2.40543,1.00226 -0.20046,7.95127 c -1.01213,-0.56301 -1.74691,-1.2647 -2.40542,-2.00452 z"
         style="fill:none;stroke:none;stroke-width:0.26458332px;stroke-linecap:butt;stroke-linejoin:miter;stroke-opacity:1" />
      <path
         sodipodi:nodetypes="cccccc"
         inkscape:connector-curvature="0"
         id="path4634"
         d="m -117.73223,154.34489 c 7.37113,3.39594 15.03548,3.85974 23.118819,0.13363 v -8.21854 l -11.492589,4.6104 -11.4383,-4.58116 z"
         style="fill:#5b5d5c;fill-opacity:1;stroke:none;stroke-width:0.26458332px;stroke-linecap:butt;stroke-linejoin:miter;stroke-opacity:1" />
      <path
         sodipodi:nodetypes="ccccc"
         inkscape:connector-curvature="0"
         id="path4636"
         d="m -92.349971,145.31619 -2.26344,0.94379 2e-6,8.21854 c 0.82408,-0.25577 1.648161,-0.79381 2.472241,-1.9377 z"
         style="fill:#333333;fill-opacity:1;stroke:none;stroke-width:0.26458332px;stroke-linecap:butt;stroke-linejoin:miter;stroke-opacity:1" />
      <path
         sodipodi:nodetypes="ccccc"
         inkscape:connector-curvature="0"
         id="path4638"
         d="m -119.73072,152.39816 c -0.0627,-0.34546 -0.0615,-6.90609 0.001,-6.9675 1.03843,0.34383 1.24326,0.32038 2.1851,0.85856 -0.0568,2.732 -0.11592,5.69405 -0.18793,8.05567 -0.81194,-0.68574 -1.71173,-1.15525 -1.99849,-1.94673 z"
         style="opacity:1;fill:#7c7e7d;fill-opacity:1;stroke:none;stroke-width:0.06681738;stroke-opacity:1" />
    </g>
  </g>
  <g
     inkscape:groupmode="layer"
     id="layer4"
     inkscape:label="Capa 2">
    <path
       style="opacity:1;fill:#ff0000;fill-opacity:1;stroke:none;stroke-width:0.81043756;stroke-opacity:1"
       d=""
       id="path4779"
       inkscape:connector-curvature="0"
       transform="scale(0.26458333)" />
    <path
       style="opacity:1;fill:#ff0000;fill-opacity:1;stroke:none;stroke-width:0.81043756;stroke-opacity:1"
       d=""
       id="path4785"
       inkscape:connector-curvature="0"
       transform="scale(0.26458333)" />
    <path
       style="opacity:1;fill:#000000;fill-opacity:1;stroke:none;stroke-width:0.81043756;stroke-opacity:1"
       d=""
       id="path4787"
       inkscape:connector-curvature="0"
       transform="scale(0.26458333)" />
    <g
       id="g4948"
       transform="matrix(0.14648074,0,0,0.14648074,26.456014,13.034047)">
      <path
         inkscape:connector-curvature="0"
         id="path4924"
         d="m -101.81368,-68.641716 c -1.20738,-0.246086 -2.30284,-1.170093 -5.66255,-4.776301 -3.23333,-3.470555 -4.46566,-4.983075 -4.4607,-5.474909 0.002,-0.195797 0.7256,-1.658646 1.60805,-3.250776 0.88245,-1.592128 1.62865,-2.965019 1.65823,-3.050863 0.0754,-0.218768 34.089045,-0.311862 35.588193,-0.09741 l 1.225902,0.175369 1.364487,2.504985 c 2.020909,3.710069 2.032059,3.747863 1.364197,4.623475 -0.886449,1.162195 -4.61007,5.236358 -6.359845,6.958557 -2.749968,2.706635 -1.559433,2.496286 -14.366695,2.538344 -6.073679,0.01995 -11.455349,-0.04777 -11.959269,-0.150474 z m 14.905617,-1.894467 c 1.31473,-0.670727 1.464339,-1.089245 0.832813,-2.329722 -0.649833,-1.276432 -3.204885,-4.288883 -3.910277,-4.61028 -0.474983,-0.216419 -0.621874,-0.147154 -1.50385,0.709136 -1.161806,1.127969 -2.743237,3.278296 -3.180328,4.324406 -0.294487,0.704805 -0.284967,0.774401 0.163554,1.195765 1.554192,1.460088 5.420318,1.821707 7.598088,0.710695 z m 2.82521,-3.483697 c 0.449932,-1.501741 0.327131,-3.697081 -0.281123,-5.025681 -0.671073,-1.465821 -1.269039,-1.794777 -2.297895,-1.264137 -0.399638,0.206118 -1.089319,0.603237 -1.532628,0.882486 l -0.806014,0.507725 0.880729,1.114205 c 0.484402,0.612815 1.359461,2.06819 1.944577,3.234166 1.003826,2.000361 1.085461,2.1004 1.446982,1.77323 0.210725,-0.190704 0.501142,-0.740601 0.645372,-1.221994 z m -10.32464,-0.632447 c 0.514895,-0.994196 1.31576,-2.310389 1.779699,-2.924873 0.463941,-0.614487 0.843529,-1.197494 0.843529,-1.29557 0,-0.312999 -2.25125,-1.555504 -2.818361,-1.555504 -1.734409,0 -2.811949,4.255945 -1.70889,6.74959 0.250774,0.566923 0.560075,0.969912 0.706866,0.920983 0.143544,-0.04785 0.682265,-0.90043 1.197157,-1.894626 z m 6.181215,-6.026211 c 2.369235,-0.940078 1.393496,-1.85865 -1.999041,-1.881918 -2.881233,-0.01976 -4.567973,0.932535 -2.896942,1.635546 2.521456,1.060786 2.807203,1.075166 4.895983,0.246372 z"
         style="opacity:1;fill:#999999;fill-opacity:1;stroke:none;stroke-width:0.21442828;stroke-opacity:1" />
      <path
         sodipodi:nodetypes="cccccccsccscscc"
         inkscape:connector-curvature="0"
         id="path4922"
         d="m -53.194362,-81.65358 c -2.971202,-0.785926 -3.596492,-0.880824 -5.896777,-0.894932 -2.315393,-0.01421 -2.680076,0.03684 -3.640712,0.509548 -0.594812,0.292695 -1.715333,1.192652 -2.530326,2.032256 -0.809557,0.834002 -1.529996,1.413323 -1.613326,1.297311 -0.821368,-1.143466 -1.906135,-2.949046 -2.421658,-4.030806 l -0.631481,-1.325088 0.626925,-0.568074 c 0.805752,-0.730113 3.274928,-2.171996 4.762926,-2.781329 4.117011,-0.754774 6.466945,-0.929698 10.140176,0.40319 3.074702,1.115706 7.159362,2.964555 10.913318,4.742103 l 2.740146,1.297495 0.857761,1.865442 c 0.471768,1.025994 1.058267,2.658371 1.025356,2.747247 -4.449895,-2.477896 -9.717876,-4.062438 -14.332328,-5.294363 z"
         style="opacity:1;fill:#4d4d4d;fill-opacity:1;stroke:none;stroke-width:0.21442828;stroke-opacity:1" />
      <path
         sodipodi:nodetypes="cccscccccscssc"
         inkscape:connector-curvature="0"
         id="path4920"
         d="m -140.85895,-77.458614 c 0.17741,-1.228539 1.55512,-3.0288 1.55512,-3.0288 4.71353,-2.847885 10.29638,-5.329003 15.82869,-6.788218 2.42242,-0.614494 4.74291,-0.687112 6.64974,-0.208097 1.73379,0.435546 5.01813,2.104877 5.86954,2.983315 l 0.69484,0.716888 -0.6644,1.316149 c -0.54226,1.074227 -1.58355,2.791354 -2.40835,3.971467 -0.0798,0.114178 -0.8278,-0.436438 -1.66223,-1.223592 -1.68458,-1.589159 -3.18669,-2.453389 -4.60114,-2.647262 -1.26398,-0.173249 -4.88366,0.25459 -7.63659,0.902628 -3.36327,0.791716 -6.04285,1.663116 -9.86014,3.20652 -1.88903,0.763773 -3.76895,1.919362 -3.89962,1.919362 -0.1513,0 0.0424,-0.744831 0.13454,-1.12036 z"
         style="opacity:1;fill:#4d4d4d;fill-opacity:1;stroke:none;stroke-width:0.21442828;stroke-opacity:1" />
      <path
         sodipodi:nodetypes="ccsscscsssccscccsccscssssscscccccccscsccccsssssscccsscccccccccssccccccccc"
         inkscape:connector-curvature="0"
         id="path4797"
         d="m -34.693918,5.5911316 c -0.44708,-0.184668 -3.27195,-2.867513 -7.3721,-7.001442 -8.87244,-8.9455586 -14.437495,-13.8710746 -17.690327,-15.6573556 -2.759316,-1.515266 -1.862365,-1.458732 -24.980894,-1.574474 -24.236141,-0.121338 -32.053421,0.06133 -34.170861,0.798499 -3.20793,1.116798 -7.46028,4.686618 -17.61439,14.7871306 -4.30248,4.279768 -8.18612,8.021905 -8.63032,8.315861 -0.69082,0.457165 -0.97369,0.517328 -1.95579,0.415967 -2.27206,-0.234496 -5.90934,-2.031114 -8.11193,-4.006843 -7.48619,-6.715143 -7.8499,-22.1197356 -1.05373,-44.6291126 2.76998,-9.174366 8.53378,-24.395484 11.22604,-29.645863 1.29482,-2.525143 1.69182,-2.860394 5.63177,-4.755906 4.17971,-2.010855 8.34396,-3.562514 12.75849,-4.753989 2.73179,-0.737306 6.76808,-1.196509 9.03672,-0.509905 1.28192,0.356487 3.54796,2.872426 10.03029,9.935983 1.81419,1.976848 3.60273,3.782279 3.97454,4.01207 1.25343,0.774666 3.18642,0.885619 14.277828,0.819542 l 10.605334,-0.06318 1.072142,-0.528587 c 1.308335,-0.645039 3.394188,-2.702111 8.955915,-8.83234 5.076777,-5.595715 5.442773,-5.843042 8.598183,-5.810369 3.072612,0.03182 10.11549,1.954123 16.40287,4.477049 4.48495,1.79967 6.70942,3.174471 7.73663,4.781508 2.56558,4.013771 9.55635,22.566208 12.85306,34.110056 2.97465,10.416133 3.79263,16.130053 3.61222,25.233016 -0.12901,6.5096016 -0.37651,7.8476476 -2.11062,11.4106106 -0.93202,1.914958 -1.34527,2.48924697 -2.94211,4.088626 -1.90654,1.909566 -3.68964,3.02804 -6.468,4.057155 -1.99075,0.73738 -2.85867,0.861811 -3.67096,0.526293 z M -105.17421,-25.922397 c 4.09871,-1.204343 7.375718,-4.539477 8.427298,-8.576782 0.419711,-1.611375 0.412358,-4.282122 -0.01635,-5.944938 -0.84586,-3.280688 -3.328148,-6.246503 -6.574478,-7.855122 l -1.82769,-0.905658 -3.18767,0.0027 c -3.51718,0.0029 -4.57909,0.25395 -6.5113,1.53914 -4.94291,3.287733 -6.87483,9.052364 -4.8429,14.4507 0.58491,1.553943 0.94143,2.176979 2.02579,3.540104 1.51724,1.907292 4.51657,3.618498 7.16969,4.090514 1.40772,0.250452 3.85827,0.09407 5.33763,-0.340619 z m 36.73352,-2.524209 c 3.325519,-0.918361 5.832713,-3.036708 7.283961,-6.154276 0.497081,-1.067826 0.53848,-1.395811 0.53848,-4.265974 0,-2.816231 -0.04747,-3.210237 -0.503806,-4.181351 -1.237909,-2.634358 -3.657278,-4.980175 -6.098135,-5.912744 -1.514637,-0.578691 -4.762598,-0.790432 -6.522011,-0.425178 -2.942881,0.610939 -5.582947,2.67852 -7.135329,5.588069 l -0.857713,1.607566 v 3.323638 3.32364 l 0.82971,1.552786 c 1.397185,2.614799 4.091384,4.820752 6.782493,5.553359 1.311728,0.357095 4.373322,0.351957 5.68235,-0.0096 z m -55.3462,-21.792558 c 2.91228,-0.42097 6.0075,-2.723544 7.55547,-5.62062 1.39238,-3.133751 1.53514,-6.754337 5.8e-4,-9.69569 -2.19623,-4.209563 -6.76437,-6.584275 -11.25232,-5.923021 -6.75043,1.435461 -9.49113,6.708758 -9.127,12.240956 1.03903,6.858138 7.29859,9.728741 12.82327,8.998375 z m 24.600138,-7.75128 c 1.02887,-0.578257 1.80457,-2.019586 1.61013,-2.991787 -0.30105,-1.505249 -1.58527,-2.543876 -3.145398,-2.543876 -1.19442,0 -2.34604,0.630853 -2.83159,1.959024 -0.4226,1.455227 0.12605,2.817171 1.53975,3.679154 0.8976,0.547304 1.79665,0.476639 2.827108,-0.102515 z m 20.621212,0.176284 c 2.565874,-1.086019 2.233634,-4.931005 -0.493667,-5.713182 -1.058003,-0.303432 -2.184718,0.07301 -3.000941,1.002638 -1.224403,1.499641 -0.553662,4.005446 0.96819,4.701852 0.835646,0.368861 1.66869,0.371729 2.526418,0.0087 z"
         style="opacity:1;fill:#cccccc;fill-opacity:1;stroke:none;stroke-width:0.21442828;stroke-opacity:1" />
      <path
         inkscape:connector-curvature="0"
         id="path4799"
         d="m -109.54298,-27.987565 c -1.64229,-0.606081 -1.7193,-0.780679 -1.95591,-4.43421 l -0.1354,-2.090675 h -1.55674 c -0.85621,0 -2.1552,-0.06255 -2.88663,-0.139001 -1.29041,-0.134874 -1.34307,-0.164844 -1.77412,-1.009775 -0.57578,-1.128617 -0.61738,-2.77496 -0.0992,-3.926586 0.47331,-1.051935 0.76711,-1.141584 3.75679,-1.146341 1.13513,-0.0019 2.18272,-0.07878 2.32799,-0.171056 0.16505,-0.104841 0.31744,-1.008449 0.40629,-2.409034 0.0782,-1.232694 0.22409,-2.463038 0.3242,-2.734098 0.25456,-0.689242 1.5326,-1.161161 3.23469,-1.194419 1.35829,-0.02654 1.48232,0.01233 2.14284,0.671398 0.69861,0.697077 0.70138,0.708361 0.77935,3.164555 0.0909,2.862656 -0.20292,2.601407 3.0828,2.741302 2.27559,0.09689 2.62388,0.251712 3.093478,1.375138 0.384668,0.920237 0.366443,2.932925 -0.03356,3.706439 -0.422619,0.817256 -1.367338,1.068764 -4.020188,1.070282 l -2.09068,0.0013 -0.0121,2.090675 c -0.0162,2.793804 -0.26273,3.465655 -1.48889,4.05715 -1.33801,0.645451 -2.11217,0.739767 -3.09499,0.37706 z"
         style="opacity:1;fill:#000000;fill-opacity:1;stroke:none;stroke-width:0.21442828;stroke-opacity:1" />
      <g
         transform="translate(-20.799543,11.579126)"
         id="g4860">
        <circle
           style="opacity:1;fill:#0066ff;fill-opacity:1;stroke:none;stroke-width:0.38451016;stroke-opacity:1"
           id="path4819"
           cx="-41.16333"
           cy="-71.533966"
           r="4.8125095" />
        <text
           xml:space="preserve"
           style="font-style:normal;font-weight:normal;font-size:8.46666622px;line-height:1.25;font-family:sans-serif;letter-spacing:0px;word-spacing:0px;fill:#ffffff;fill-opacity:1;stroke:none;stroke-width:0.26458332"
           x="-43.652065"
           y="-69.218864"
           id="text4803"><tspan
             sodipodi:role="line"
             id="tspan4801"
             x="-43.652065"
             y="-69.218864"
             style="font-size:8.46666622px;fill:#ffffff;stroke-width:0.26458332">x</tspan></text>
        <circle
           style="opacity:1;fill:#ffcc00;fill-opacity:1;stroke:none;stroke-width:0.38451016;stroke-opacity:1"
           id="path4819-6"
           cx="-31.08865"
           cy="-80.325523"
           r="4.8125095" />
        <text
           xml:space="preserve"
           style="font-style:normal;font-weight:normal;font-size:8.46666622px;line-height:1.25;font-family:sans-serif;letter-spacing:0px;word-spacing:0px;fill:#ffffff;fill-opacity:1;stroke:none;stroke-width:0.26458332"
           x="-33.674538"
           y="-77.23941"
           id="text4811"><tspan
             sodipodi:role="line"
             id="tspan4809"
             x="-33.674538"
             y="-77.23941"
             style="font-size:8.46666622px;fill:#ffffff;stroke-width:0.26458332">Y</tspan></text>
        <circle
           style="opacity:1;fill:#ff0000;fill-opacity:1;stroke:none;stroke-width:0.38451016;stroke-opacity:1"
           id="path4819-9"
           cx="-21.013969"
           cy="-71.533966"
           r="4.8125095" />
        <text
           xml:space="preserve"
           style="font-style:normal;font-weight:normal;font-size:8.46666622px;line-height:1.25;font-family:sans-serif;letter-spacing:0px;word-spacing:0px;fill:#ffffff;fill-opacity:1;stroke:none;stroke-width:0.26458332"
           x="-24.033939"
           y="-68.447853"
           id="text4815"><tspan
             sodipodi:role="line"
             id="tspan4813"
             x="-24.033939"
             y="-68.447853"
             style="font-size:8.46666622px;fill:#ffffff;stroke-width:0.26458332">B</tspan></text>
        <circle
           style="opacity:1;fill:#00ff00;fill-opacity:1;stroke:none;stroke-width:0.38451016;stroke-opacity:1"
           id="path4819-2"
           cx="-31.08865"
           cy="-61.884689"
           r="4.8125095" />
        <text
           xml:space="preserve"
           style="font-style:normal;font-weight:normal;font-size:8.46666622px;line-height:1.25;font-family:sans-serif;letter-spacing:0px;word-spacing:0px;fill:#ffffff;fill-opacity:1;stroke:none;stroke-width:0.26458332"
           x="-33.982529"
           y="-58.798573"
           id="text4807"><tspan
             sodipodi:role="line"
             id="tspan4805"
             x="-33.982529"
             y="-58.798573"
             style="font-size:8.46666622px;fill:#ffffff;stroke-width:0.26458332">A</tspan></text>
      </g>
      <circle
         r="7.933846"
         cy="-38.940865"
         cx="-71.203995"
         id="path4862"
         style="opacity:1;fill:#cccccc;fill-opacity:1;stroke:none;stroke-width:0.26458332;stroke-opacity:1" />
      <circle
         r="7.933846"
         cy="-60.81255"
         cx="-126.29825"
         id="path4862-4"
         style="opacity:1;fill:#cccccc;fill-opacity:1;stroke:none;stroke-width:0.26458332;stroke-opacity:1" />
      <circle
         r="5.2959876"
         cy="-60.798744"
         cx="-125.72766"
         id="path4883"
         style="opacity:1;fill:#1a1a1a;fill-opacity:1;stroke:none;stroke-width:0.26458332;stroke-opacity:1" />
      <circle
         r="5.2959876"
         cy="-39.155296"
         cx="-71.833473"
         id="path4883-8"
         style="opacity:1;fill:#1a1a1a;fill-opacity:1;stroke:none;stroke-width:0.26458332;stroke-opacity:1" />
    </g>
  </g>
</svg>
